<?xml version="1.0" standalone="no"?>
<!DOCTYPE svg PUBLIC "-//W3C//DTD SVG 20010904//EN"
 "http://www.w3.org/TR/2001/REC-SVG-20010904/DTD/svg10.dtd">
<svg version="1.0" xmlns="http://www.w3.org/2000/svg"
 width="940.000000pt" height="940.000000pt" viewBox="0 0 940.000000 940.000000"
 preserveAspectRatio="xMidYMid meet">
<metadata>
Created by potrace 1.14, written by Peter Selinger 2001-2017
</metadata>
<g transform="translate(0.000000,940.000000) scale(0.100000,-0.100000)"
fill="#000000" stroke="none">
<path d="M4538 6655 c-330 -52 -620 -262 -775 -560 -79 -155 -130 -372 -120
-519 23 -345 190 -643 468 -832 l66 -46 49 25 c132 66 299 107 440 107 l84 0
0 -1045 c0 -989 1 -1045 18 -1045 9 0 58 7 107 14 320 49 606 254 757 543 84
160 135 376 125 527 -22 336 -188 639 -446 816 -44 30 -80 57 -80 60 0 3 24
20 53 37 67 41 193 158 250 232 57 75 117 180 151 266 38 96 75 283 75 380 0
97 -37 284 -75 380 -184 464 -657 736 -1147 660z"/>
</g>
</svg>
